<svg width="270px" height="72.8px" xmlns="http://www.w3.org/2000/svg" viewBox="114.98638916015625 38.6 270.0272216796875 72.8" style="background: none" preserveAspectRatio="xMidYMid"><defs><linearGradient id="editing-shiny-gradient" x1="0.3705904774487394" x2="0.6294095225512606" y1="0.9829629131445341" y2="0.0170370868554659" gradientUnits="objectBoundingBox"><stop offset="0" stop-color="#0b59e4"></stop><stop offset="0.5" stop-color="#667395"></stop><stop offset="1" stop-color="#292664"></stop></linearGradient><linearGradient id="editing-shiny-gradient2" x1="0" x2="0" y1="0" y2="1"><stop offset="0.2" stop-color="#ffffff" stop-opacity="0.8"></stop><stop offset="0.8" stop-color="#ffffff" stop-opacity="0"></stop></linearGradient><filter id="editing-shiny2" x="-100%" y="-100%" width="300%" height="300%"><feMorphology operator="erode" radius="2"></feMorphology></filter><filter id="editing-shiny" x="-100%" y="-100%" width="300%" height="300%"><feFlood flood-color="#fff" result="flood"></feFlood><feConvolveMatrix in="SourceGraphic" result="conv" order="8,8" divisor="1" kernelMatrix="0 0 0 0 0 0 0 0 0 0 0 1 1 0 0 0 0 0 0 1 1 0 0 0 0 0 1 0 0 1 0 0 0 0 1 0 0 1 0 0 0 1 0 0 0 0 1 0 0 1 1 0 0 1 1 0 0 0 0 1 1 0 0 0 "></feConvolveMatrix><feOffset dx="0" dy="4" in="conv" result="offset"></feOffset><feComposite operator="in" in="flood" in2="offset" result="comp"></feComposite><feGaussianBlur in="offset" stdDeviation="3" result="shadow"></feGaussianBlur><feColorMatrix in="shadow" type="matrix" values="0.7 0 0 0 0  0 0.7 0 0 0  0 0 0.7 0 0  0 0 0 0.3 0" result="dark-shadow"></feColorMatrix><feOffset dx="0" dy="4" in="dark-shadow" result="offset-shadow"></feOffset><feOffset dx="0" dy="2" in="conv" result="offset-2"></feOffset><feComposite operator="out" in="offset" in2="offset-2" result="edge-diff"></feComposite><feGaussianBlur in="edge-diff" stdDeviation="1" result="edge-blur"></feGaussianBlur><feColorMatrix in="edge-blur" result="edge-shadow" type="matrix" values="0 0 0 0 0  0 0 0 0 0  0 0 0 0 0  0 0 0 0.5 0"></feColorMatrix><feComposite operator="in" in="edge-shadow" in2="offset" result="edge-shadow-in"></feComposite><feOffset dx="0" dy="1" in="edge-shadow-in" result="edge-shadow-final"></feOffset><feMerge result="out"><feMergeNode in="offset-shadow"></feMergeNode><feMergeNode in="comp"></feMergeNode><feMergeNode in="edge-shadow-final"></feMergeNode><feMergeNode in="SourceGraphic"></feMergeNode></feMerge></filter></defs><style>    text {
  font-size: 64px;
  font-family: Arial Black;
  dominant-baseline: central;
  text-anchor: middle;
}</style><g transform="matrix(1,0,0,1,159.1,91.2)">    <path transform="matrix(1.1,0,0,2.2,11.9,-14.2)" fill="url(#editing-shiny-gradient2)" d="M -20.3 -13.1 L -20.3 -13.1 L -20.3 -13.1 Q -20.3 -12.4 -20.8 -11.5 L -20.8 -11.5 L -20.8 -11.5 Q -21.3 -10.7 -21.9 -10.4 L -21.9 -10.4 L -21.9 -10.4 Q -22.4 -10.1 -22.4 -10.5 L -22.4 -10.5 L -22.4 -10.5 Q -22.4 -10.5 -22.1 -10.8 L -22.1 -10.8 L -22.1 -10.8 Q -21.1 -11.8 -21.1 -12.4 L -21.1 -12.4 L -21.1 -12.4 Q -21.1 -13.7 -23.7 -13.7 L -23.7 -13.7 L -23.7 -13.7 Q -24.8 -13.7 -26.7 -13.3 L -26.7 -13.3 L -26.7 -13.3 Q -28.5 -12.9 -30.2 -12 L -30.2 -12 L -30.2 -12 Q -32.2 -10.9 -32.2 -10.1 L -32.2 -10.1 L -32.2 -10.1 Q -32.2 -9.4 -31 -8.8 L -31 -8.8 L -31 -8.8 Q -30.3 -8.5 -28.4 -7.8 L -28.4 -7.8 L -28.4 -7.8 Q -26.4 -7.1 -25.2 -6.5 L -25.2 -6.5 L -25.2 -6.5 Q -24.1 -6 -23 -5 L -23 -5 L -23 -5 Q -21.9 -4 -21.9 -2.8 L -21.9 -2.8 L -21.9 -2.8 Q -21.9 -1.6 -23.3 -0.2 L -23.3 -0.2 L -23.3 -0.2 Q -25.5 1.9 -29 3.3 L -29 3.3 L -29 3.3 Q -32.5 4.7 -34.9 4.7 L -34.9 4.7 L -34.9 4.7 Q -39.8 4.7 -39.8 1.9 L -39.8 1.9 L -39.8 1.9 Q -39.8 -0.8 -36.8 -2.8 L -36.8 -2.8 L -36.8 -2.8 Q -34.3 -4.5 -31.6 -4.5 L -31.6 -4.5 L -31.6 -4.5 Q -31 -4.5 -31 -4.3 L -31 -4.3 L -31 -4.3 Q -31.1 -4 -32 -4 L -32 -4 L -32 -4 Q -32.8 -4 -34.2 -3.4 L -34.2 -3.4 L -34.2 -3.4 Q -35.6 -2.9 -36.7 -1.8 L -36.7 -1.8 L -36.7 -1.8 Q -38.3 -0.4 -38.3 1 L -38.3 1 L -38.3 1 Q -38.3 1.9 -37.4 2.6 L -37.4 2.6 L -37.4 2.6 Q -36.6 3.2 -34.3 3.2 L -34.3 3.2 L -34.3 3.2 Q -31.9 3.2 -29.6 2.5 L -29.6 2.5 L -29.6 2.5 Q -24.6 0.9 -23.4 -1.1 L -23.4 -1.1 L -23.4 -1.1 Q -22.9 -1.8 -22.9 -2.3 L -22.9 -2.3 L -22.9 -2.3 Q -22.9 -3.7 -24.6 -4.5 L -24.6 -4.5 L -24.6 -4.5 Q -26.7 -5.5 -30.3 -6.7 L -30.3 -6.7 L -30.3 -6.7 Q -31.7 -7.1 -32.7 -7.9 L -32.7 -7.9 L -32.7 -7.9 Q -33.6 -8.7 -33.6 -9.7 L -33.6 -9.7 L -33.6 -9.7 Q -33.6 -10.8 -32.5 -11.8 L -32.5 -11.8 L -32.5 -11.8 Q -31.3 -12.9 -29.7 -13.5 L -29.7 -13.5 L -29.7 -13.5 Q -26.1 -14.8 -23.7 -14.8 L -23.7 -14.8 L -23.7 -14.8 Q -20.3 -14.8 -20.3 -13.1 Z M -13.5 -5.8 L -13.5 -5.8 L -13.5 -5.8 Q -11.8 -5.8 -11.8 -4.2 L -11.8 -4.2 L -11.8 -4.2 Q -11.8 -3.3 -12.3 -2.8 L -12.3 -2.8 L -12.3 -2.8 Q -13.1 -1.7 -14.8 -0.8 L -14.8 -0.8 L -14.8 -0.8 Q -16.6 0.1 -17.8 0.1 L -17.8 0.1 L -17.8 0.1 Q -18.2 0.2 -18.2 -0.1 L -18.2 -0.1 L -18.2 -0.1 Q -18.3 -0.2 -18.1 -0.3 L -18.1 -0.3 L -18.1 -0.3 Q -18 -0.3 -18 -0.3 L -18 -0.3 L -18 -0.3 Q -17.3 -0.4 -16.1 -1 L -16.1 -1 L -16.1 -1 Q -14.1 -2.1 -13.1 -3.3 L -13.1 -3.3 L -13.1 -3.3 Q -12.7 -3.8 -12.7 -4.3 L -12.7 -4.3 L -12.7 -4.3 Q -12.7 -4.8 -13.2 -4.8 L -13.2 -4.8 L -13.2 -4.8 Q -13.6 -4.8 -14.3 -4.5 L -14.3 -4.5 L -14.3 -4.5 Q -15.7 -3.8 -17.4 -2.1 L -17.4 -2.1 L -17.4 -2.1 Q -19 -0.4 -19.5 1.2 L -19.5 1.2 L -19.5 1.2 Q -19.6 1.7 -19.6 2.1 L -19.6 2.1 L -19.6 2.1 Q -19.6 2.6 -19.2 3.1 L -19.2 3.1 L -19.2 3.1 Q -18.8 3.5 -18 3.5 L -18 3.5 L -18 3.5 Q -17 3.5 -15.8 3 L -15.8 3 L -15.8 3 Q -12.3 1.6 -10.4 -1.3 L -10.4 -1.3 L -10.4 -1.3 Q -10.3 -1.6 -10.1 -1.4 L -10.1 -1.4 L -10.1 -1.4 Q -10 -1.3 -10 -1.3 L -10 -1.3 L -10 -1.3 Q -10 -1.2 -10.1 -1 L -10.1 -1 L -10.1 -1 Q -11 0.5 -12.4 1.7 L -12.4 1.7 L -12.4 1.7 Q -15.2 4.1 -17.8 4.1 L -17.8 4.1 L -17.8 4.1 Q -20 4.1 -20.9 2.7 L -20.9 2.7 L -20.9 2.7 Q -21.3 2.2 -21.3 1.5 L -21.3 1.5 L -21.3 1.5 Q -21.3 0.7 -20.9 -0.3 L -20.9 -0.3 L -20.9 -0.3 Q -20.1 -2.1 -17.5 -3.9 L -17.5 -3.9 L -17.5 -3.9 Q -15 -5.8 -13.5 -5.8 Z M -1.1 -3.2 L -1.1 -3.2 L -1.1 -3.2 Q -1.1 -1.8 -2.2 -0.4 L -2.2 -0.4 L -2.2 -0.4 Q -3.3 1 -4.8 2 L -4.8 2 L -4.8 2 Q -6.2 2.9 -7.7 3.4 L -7.7 3.4 L -7.7 3.4 Q -9.1 3.9 -9.8 3.9 L -9.8 3.9 L -9.8 3.9 Q -10.6 3.9 -11 3.8 L -11 3.8 L -11 3.8 Q -11.7 5.4 -12.9 9.1 L -12.9 9.1 L -12.9 9.1 Q -13 9.5 -13.1 10.1 L -13.1 10.1 L -13.1 10.1 Q -13.1 10.7 -13.4 11.7 L -13.4 11.7 L -13.4 11.7 Q -13.8 12.8 -14.1 13.4 L -14.1 13.4 L -14.1 13.4 Q -14.3 13.8 -15 14 L -15 14 L -15 14 Q -15.8 14.2 -16.1 14.2 L -16.1 14.2 L -16.1 14.2 Q -16.4 14.2 -16.4 13.9 L -16.4 13.9 L -16.4 13.9 Q -16.4 13.8 -16.3 13.6 L -16.3 13.6 L -16.3 13.6 Q -14.9 10.7 -12.7 5 L -12.7 5 L -12.7 5 Q -10.5 -0.7 -10.3 -1.3 L -10.3 -1.3 L -10.3 -1.3 Q -10.1 -1.9 -9.7 -3.1 L -9.7 -3.1 L -9.7 -3.1 Q -9 -5.1 -9 -6.1 L -9 -6.1 L -9 -6.1 Q -9 -6.4 -8 -6.4 L -8 -6.4 L -8 -6.4 Q -7 -6.4 -7 -5.7 L -7 -5.7 L -7 -5.7 Q -7 -5.2 -7.6 -4.2 L -7.6 -4.2 L -7.6 -4.2 Q -8.2 -3.3 -9.4 -0.5 L -9.4 -0.5 L -9.4 -0.5 Q -7.6 -3.2 -6.4 -4 L -6.4 -4 L -6.4 -4 Q -5 -5.2 -3.6 -5.2 L -3.6 -5.2 L -3.6 -5.2 Q -3 -5.2 -2.4 -5.1 L -2.4 -5.1 L -2.4 -5.1 Q -1.2 -4.6 -1.1 -3.7 L -1.1 -3.7 L -1.1 -3.7 Q -1.1 -3.4 -1.1 -3.2 Z M -2.6 -3.6 L -2.6 -3.6 L -2.6 -3.6 Q -2.6 -4.7 -3.4 -4.7 L -3.4 -4.7 L -3.4 -4.7 Q -3.9 -4.7 -5 -4.1 L -5 -4.1 L -5 -4.1 Q -6.2 -3.5 -7.3 -2.4 L -7.3 -2.4 L -7.3 -2.4 Q -8.4 -1.2 -9 -0.1 L -9 -0.1 L -9 -0.1 Q -9.6 0.9 -10.1 2 L -10.1 2 L -10.1 2 Q -10.7 3.1 -10.8 3.3 L -10.8 3.3 L -10.8 3.3 Q -8.9 3.3 -6.6 1.6 L -6.6 1.6 L -6.6 1.6 Q -4.3 0 -3.2 -1.9 L -3.2 -1.9 L -3.2 -1.9 Q -2.6 -2.9 -2.6 -3.6 Z M 11.3 -14.9 L 11.3 -14.9 L 11.3 -14.9 Q 11.9 -15.1 12.3 -15.1 L 12.3 -15.1 L 12.3 -15.1 Q 13.6 -15.1 14.1 -14.4 L 14.1 -14.4 L 14.1 -14.4 Q 14.3 -14 14.3 -13.7 L 14.3 -13.7 L 14.3 -13.7 Q 14.3 -11.6 10.8 -8.4 L 10.8 -8.4 L 10.8 -8.4 Q 7.7 -5.7 5 -3.7 L 5 -3.7 L 5 -3.7 Q 4.2 -1.7 3.2 1.1 L 3.2 1.1 L 3.2 1.1 Q 4.3 -0.2 6 -2 L 6 -2 L 6 -2 Q 9.5 -5.6 10.9 -5.6 L 10.9 -5.6 L 10.9 -5.6 Q 11.5 -5.6 11.6 -4.9 L 11.6 -4.9 L 11.6 -4.9 Q 11.6 -4.2 11.3 -3.5 L 11.3 -3.5 L 11.3 -3.5 Q 10.9 -2.9 10.6 -2.3 L 10.6 -2.3 L 10.6 -2.3 Q 9.1 0.1 9.1 2 L 9.1 2 L 9.1 2 Q 9.1 2.6 9.4 2.9 L 9.4 2.9 L 9.4 2.9 Q 9.8 3.4 10.6 2.9 L 10.6 2.9 L 10.6 2.9 Q 11.4 2.5 12.9 1.2 L 12.9 1.2 L 12.9 1.2 Q 14.3 -0.1 15.2 -1.3 L 15.2 -1.3 L 15.2 -1.3 Q 15.4 -1.5 15.5 -1.4 L 15.5 -1.4 L 15.5 -1.4 Q 15.7 -1.3 15.7 -1.3 L 15.7 -1.3 L 15.7 -1.3 Q 15.7 -1.2 15.6 -1.1 L 15.6 -1.1 L 15.6 -1.1 Q 15.1 -0.3 13.9 1 L 13.9 1 L 13.9 1 Q 12.7 2.3 12 2.9 L 12 2.9 L 12 2.9 Q 10.5 4 9.2 4 L 9.2 4 L 9.2 4 Q 8.1 4 7.7 2.8 L 7.7 2.8 L 7.7 2.8 Q 7.6 2.5 7.6 2.1 L 7.6 2.1 L 7.6 2.1 Q 7.6 1.7 7.6 1.3 L 7.6 1.3 L 7.6 1.3 Q 7.8 0 9.3 -2.8 L 9.3 -2.8 L 9.3 -2.8 Q 9.6 -3.3 9.6 -3.6 L 9.6 -3.6 L 9.6 -3.6 Q 9.6 -3.8 9.3 -3.8 L 9.3 -3.8 L 9.3 -3.8 Q 8.8 -3.8 7.4 -2.6 L 7.4 -2.6 L 7.4 -2.6 Q 6.5 -1.7 4.6 0.8 L 4.6 0.8 L 4.6 0.8 Q 2.7 3.3 2.5 3.5 L 2.5 3.5 L 2.5 3.5 Q 1.3 4.1 1.1 4.1 L 1.1 4.1 L 1.1 4.1 Q 0.8 4.1 0.8 4 L 0.8 4 L 0.8 4 Q 0.7 3.9 0.8 3.8 L 0.8 3.8 L 0.8 3.8 Q 0.9 3.6 1.3 2.4 L 1.3 2.4 L 1.3 2.4 Q 2.8 -1.7 3.3 -3 L 3.3 -3 L 3.3 -3 Q 2.3 -1.7 0.7 -0.1 L 0.7 -0.1 L 0.7 -0.1 Q 0.5 0.1 0.5 -0.2 L 0.5 -0.2 L 0.5 -0.2 Q 0.5 -0.6 0.8 -0.9 L 0.8 -0.9 L 0.8 -0.9 Q 1.1 -1.3 1.9 -2.4 L 1.9 -2.4 L 1.9 -2.4 Q 2.8 -3.5 3.2 -4 L 3.2 -4 L 3.2 -4 Q 2.9 -4.1 2.9 -4.4 L 2.9 -4.4 L 2.9 -4.4 Q 2.9 -4.7 3.1 -4.8 L 3.1 -4.8 L 3.1 -4.8 Q 3.3 -4.9 3.8 -4.7 L 3.8 -4.7 L 3.8 -4.7 Q 4.1 -5.2 4.3 -5.7 L 4.3 -5.7 L 4.3 -5.7 Q 8 -13.6 11.3 -14.9 Z M 13.1 -12.6 L 13.1 -12.6 L 13.1 -12.6 Q 13.5 -13.3 13.5 -13.8 L 13.5 -13.8 L 13.5 -13.8 Q 13.5 -14.3 13 -14.3 L 13 -14.3 L 13 -14.3 Q 12.6 -14.3 11.8 -13.8 L 11.8 -13.8 L 11.8 -13.8 Q 8.4 -11.2 5.6 -5.1 L 5.6 -5.1 L 5.6 -5.1 Q 7.7 -6.4 9.9 -8.5 L 9.9 -8.5 L 9.9 -8.5 Q 12.1 -10.7 13.1 -12.6 Z M 21.2 -0.2 L 21.2 -0.2 L 21.2 -0.2 Q 21.8 -1.3 21.8 -1.9 L 21.8 -1.9 L 21.8 -1.9 Q 21.8 -2.6 21.7 -2.9 L 21.7 -2.9 L 21.7 -2.9 Q 21.5 -3.3 21.8 -3.5 L 21.8 -3.5 L 21.8 -3.5 Q 22 -3.8 22.4 -3.7 L 22.4 -3.7 L 22.4 -3.7 Q 23.1 -3.5 23.1 -2.3 L 23.1 -2.3 L 23.1 -2.3 Q 23.1 -1.1 21.6 1 L 21.6 1 L 21.6 1 Q 21.6 1.8 22.5 1.8 L 22.5 1.8 L 22.5 1.8 Q 23.3 1.8 25 0 L 25 0 L 25 0 Q 25.8 -0.9 26 -1.2 L 26 -1.2 L 26 -1.2 Q 26.2 -1.5 26.4 -1.4 L 26.4 -1.4 L 26.4 -1.4 Q 26.5 -1.3 26.5 -1.3 L 26.5 -1.3 L 26.5 -1.3 Q 26.5 -1 25.4 0.3 L 25.4 0.3 L 25.4 0.3 Q 23.7 2.5 22.3 2.5 L 22.3 2.5 L 22.3 2.5 Q 21.4 2.5 21 1.7 L 21 1.7 L 21 1.7 Q 20.4 2.4 19.8 2.9 L 19.8 2.9 L 19.8 2.9 Q 18.6 4 17.1 4 L 17.1 4 L 17.1 4 Q 16.3 4 15.7 3.6 L 15.7 3.6 L 15.7 3.6 Q 14.6 2.9 14.6 1.2 L 14.6 1.2 L 14.6 1.2 Q 14.6 -0.6 15.9 -2.5 L 15.9 -2.5 L 15.9 -2.5 Q 16.6 -3.6 17.5 -4.4 L 17.5 -4.4 L 17.5 -4.4 Q 19.1 -5.8 20.4 -5.8 L 20.4 -5.8 L 20.4 -5.8 Q 20.8 -5.8 21.1 -5.7 L 21.1 -5.7 L 21.1 -5.7 Q 22 -5.4 22 -4.5 L 22 -4.5 L 22 -4.5 Q 22 -3.8 21.6 -3.8 L 21.6 -3.8 L 21.6 -3.8 Q 21.5 -3.9 21.5 -4.3 L 21.5 -4.3 L 21.5 -4.3 Q 21.5 -4.8 20.9 -4.8 L 20.9 -4.8 L 20.9 -4.8 Q 19.8 -4.8 18.1 -2.8 L 18.1 -2.8 L 18.1 -2.8 Q 16.4 -0.8 16 1.2 L 16 1.2 L 16 1.2 Q 16 1.5 16 1.9 L 16 1.9 L 16 1.9 Q 16 2.3 16.2 2.9 L 16.2 2.9 L 16.2 2.9 Q 16.5 3.4 17.3 3.4 L 17.3 3.4 L 17.3 3.4 Q 18 3.4 18.9 2.7 L 18.9 2.7 L 18.9 2.7 Q 19.8 2.1 20.6 1 L 20.6 1 L 20.5 0.8 L 20.5 0.8 Q 20.3 0.3 20.6 0 L 20.6 0 L 20.6 0 Q 20.8 -0.3 21.2 -0.2 Z M 29.8 4 L 29.8 4 L 29.8 4 Q 28.2 4 28.2 2.1 L 28.2 2.1 L 28.2 2.1 Q 28.2 0.2 30.9 -2.6 L 30.9 -2.6 L 30.9 -2.6 Q 31.2 -2.8 31.3 -2.9 L 31.3 -2.9 L 31.5 -3.2 L 31.5 -3.2 Q 31.9 -3.8 31.9 -4 L 31.9 -4 L 31.8 -4.3 L 31.8 -4.3 Q 31.7 -4.6 30.8 -4.8 L 30.8 -4.8 L 30.8 -4.8 Q 29.9 -5 29.3 -5 L 29.3 -5 L 29.3 -5 Q 26.5 -1 26.1 -0.5 L 26.1 -0.5 L 26.1 -0.5 Q 25.6 0.1 25.5 0 L 25.5 0 L 25.5 0 Q 25.3 -0.1 25.3 -0.2 L 25.3 -0.2 L 25.3 -0.2 Q 25.3 -0.4 25.5 -0.6 L 25.5 -0.6 L 25.5 -0.6 Q 27.2 -2.6 28.4 -5 L 28.4 -5 L 28.4 -5 Q 28 -5 27.8 -5.2 L 27.8 -5.2 L 27.8 -5.2 Q 27.7 -5.4 27.8 -5.9 L 27.8 -5.9 L 27.8 -5.9 Q 28 -6.4 28.8 -7.2 L 28.8 -7.2 L 28.8 -7.2 Q 29.5 -8 30.1 -8.3 L 30.1 -8.3 L 30.1 -8.3 Q 30.7 -8.6 30.9 -8.6 L 30.9 -8.6 L 30.9 -8.6 Q 31 -8.7 31.2 -8.7 L 31.2 -8.7 L 31.2 -8.7 Q 31.6 -8.7 31 -7.6 L 31 -7.6 L 29.8 -5.7 L 29.8 -5.7 Q 31.2 -5.6 32.2 -5.6 L 32.2 -5.6 L 33.2 -5.6 L 33.2 -5.6 Q 33.8 -5.6 34 -5.5 L 34 -5.5 L 34 -5.5 Q 34.3 -5.3 34.1 -5 L 34.1 -5 L 34.1 -5 Q 33.9 -4.4 33 -3.4 L 33 -3.4 L 33 -3.4 Q 31.2 -1.2 30.3 1.2 L 30.3 1.2 L 30.3 1.2 Q 30 1.8 30 2.3 L 30 2.3 L 30 2.3 Q 30 3.2 30.7 3.2 L 30.7 3.2 L 30.7 3.2 Q 30.9 3.2 31.5 2.8 L 31.5 2.8 L 31.5 2.8 Q 32.1 2.5 33.5 1.2 L 33.5 1.2 L 33.5 1.2 Q 35 -0.1 35.8 -1.3 L 35.8 -1.3 L 35.8 -1.3 Q 36 -1.5 36.1 -1.4 L 36.1 -1.4 L 36.1 -1.4 Q 36.3 -1.3 36.3 -1.3 L 36.3 -1.3 L 36.3 -1.3 Q 36.3 -1.2 36.2 -1.1 L 36.2 -1.1 L 36.2 -1.1 Q 35.8 -0.3 34.6 1 L 34.6 1 L 34.6 1 Q 33.4 2.3 32.2 3.2 L 32.2 3.2 L 32.2 3.2 Q 31.1 4 29.8 4 Z M 37 3.6 L 37 3.6 L 37 3.6 Q 36.5 3.6 35.9 3.3 L 35.9 3.3 L 35.9 3.3 Q 35.4 3 35 2.5 L 35 2.5 L 35 2.5 Q 34.6 1.9 34.6 1.3 L 34.6 1.3 L 34.6 1.3 Q 34.6 0.7 34.8 0.1 L 34.8 0.1 L 34.8 0.1 Q 35.5 -1.2 36.8 -2.4 L 36.8 -2.4 L 36.8 -2.4 Q 38.2 -3.6 39.7 -4.5 L 39.7 -4.5 L 39.7 -4.5 Q 41.2 -5.4 42.1 -5.6 L 42.1 -5.6 L 42.1 -5.6 Q 42.9 -5.8 43.8 -5.8 L 43.8 -5.8 L 43.8 -5.8 Q 44.6 -5.8 45.2 -5.4 L 45.2 -5.4 L 45.2 -5.4 Q 45.8 -5 45.8 -4.5 L 45.8 -4.5 L 45.8 -4.5 Q 45.8 -4.3 45.7 -4.3 L 45.7 -4.3 L 45.7 -4.3 Q 45.7 -4.3 45.6 -4.3 L 45.6 -4.3 L 45.6 -4.3 Q 45.2 -4.9 44 -4.9 L 44 -4.9 L 44 -4.9 Q 42.9 -4.9 41.4 -4.2 L 41.4 -4.2 L 41.4 -4.2 Q 39.9 -3.4 38.6 -2.3 L 38.6 -2.3 L 38.6 -2.3 Q 37.5 -1.3 36.7 0 L 36.7 0 L 36.7 0 Q 35.9 1.3 35.9 1.9 L 35.9 1.9 L 35.9 1.9 Q 35.9 3.1 36.6 3.1 L 36.6 3.1 L 36.6 3.1 Q 37.2 3.1 38.5 2 L 38.5 2 L 38.5 2 Q 40.7 0.1 41.5 -0.7 L 41.5 -0.7 L 41.5 -0.7 Q 44.4 -3.8 44.6 -3.8 L 44.6 -3.8 L 44.6 -3.8 Q 45 -3.8 45.5 -3.6 L 45.5 -3.6 L 45.5 -3.6 Q 46 -3.4 45.9 -3 L 45.9 -3 L 45.9 -3 Q 44.3 -0.8 44 1.4 L 44 1.4 L 44 1.4 Q 44 1.7 44 2.2 L 44 2.2 L 44 2.2 Q 44 2.6 44.2 2.9 L 44.2 2.9 L 44.2 2.9 Q 44.7 3.4 45.5 2.9 L 45.5 2.9 L 45.5 2.9 Q 46.3 2.5 47.7 1.2 L 47.7 1.2 L 47.7 1.2 Q 49.2 -0.1 50 -1.3 L 50 -1.3 L 50 -1.3 Q 50.2 -1.5 50.3 -1.4 L 50.3 -1.4 L 50.3 -1.4 Q 50.5 -1.3 50.5 -1.3 L 50.5 -1.3 L 50.5 -1.3 Q 50.5 -0.8 49 0.7 L 49 0.7 L 49 0.7 Q 47.5 2.3 46.8 2.9 L 46.8 2.9 L 46.8 2.9 Q 45.3 4 44.1 4 L 44.1 4 L 44.1 4 Q 42.9 4 42.5 2.8 L 42.5 2.8 L 42.5 2.8 Q 42.4 2.4 42.4 1.9 L 42.4 1.9 L 42.4 1.9 Q 42.4 0.5 43 -1 L 43 -1 L 43 -1 Q 42.8 -0.9 41.8 0.2 L 41.8 0.2 L 41.8 0.2 Q 40.8 1.4 39.5 2.5 L 39.5 2.5 L 39.5 2.5 Q 38.1 3.6 37 3.6 Z M 58 6.1 L 58 6.1 L 58 6.1 Q 55.6 6.1 55.6 4.3 L 55.6 4.3 L 55.6 4.3 Q 55.6 3.2 56.5 1.7 L 56.5 1.7 L 56.5 1.7 Q 57.4 0.2 58.2 -1.1 L 58.2 -1.1 L 58.2 -1.1 Q 59 -2.4 60.2 -4.1 L 60.2 -4.1 L 60.2 -4.1 Q 61.4 -5.9 61.9 -6.6 L 61.9 -6.6 L 61.9 -6.6 Q 65.2 -11.4 66 -13 L 66 -13 L 66 -13 Q 65.3 -13 64.2 -13 L 64.2 -13 L 64.2 -13 Q 60.5 -13 58.1 -11.6 L 58.1 -11.6 L 58.1 -11.6 Q 56.6 -10.7 56.6 -9.3 L 56.6 -9.3 L 56.6 -9.3 Q 56.6 -8.9 56.8 -8.5 L 56.8 -8.5 L 56.8 -8.5 Q 57.1 -8.2 57.3 -8 L 57.3 -8 L 57.3 -8 Q 57.8 -7.7 58.4 -7.4 L 58.4 -7.4 L 58.4 -7.4 Q 58.8 -7.1 58.6 -7 L 58.6 -7 L 58.6 -7 Q 58.5 -7 58.3 -7.1 L 58.3 -7.1 L 58.3 -7.1 Q 57.6 -7.2 56.8 -8 L 56.8 -8 L 56.8 -8 Q 56 -8.7 55.9 -9.7 L 55.9 -9.7 L 55.9 -9.7 Q 55.8 -10 55.8 -10.2 L 55.8 -10.2 L 55.8 -10.2 Q 55.8 -11.5 56.8 -12.5 L 56.8 -12.5 L 56.8 -12.5 Q 57.9 -13.5 59.5 -13.9 L 59.5 -13.9 L 59.5 -13.9 Q 61.8 -14.4 63.5 -14.4 L 63.5 -14.4 L 63.5 -14.4 Q 65.3 -14.4 66.5 -14.1 L 66.5 -14.1 L 66.5 -14.1 Q 66.6 -14.5 66.4 -14.8 L 66.4 -14.8 L 66.4 -14.8 Q 66.3 -15.1 66.7 -15.2 L 66.7 -15.2 L 66.7 -15.2 Q 66.7 -15.2 66.7 -15.2 L 66.7 -15.2 L 66.7 -15.2 Q 67.1 -15.2 67.3 -14.7 L 67.3 -14.7 L 67.3 -14.7 Q 67.3 -14.4 67.2 -13.9 L 67.2 -13.9 L 67.2 -13.9 Q 67.8 -13.7 68.4 -13.5 L 68.4 -13.5 L 68.4 -13.5 Q 68.9 -13.3 69.2 -12.8 L 69.2 -12.8 L 69.2 -12.8 Q 69.5 -12.4 69 -12.4 L 69 -12.4 L 69 -12.4 Q 68.8 -12.4 68.2 -12.6 L 68.2 -12.6 L 68.2 -12.6 Q 67.6 -12.8 66.9 -12.9 L 66.9 -12.9 L 66.9 -12.9 Q 66 -10.1 63.4 -6.2 L 63.4 -6.2 L 63.4 -6.2 Q 57.8 2.1 57.8 4.4 L 57.8 4.4 L 57.8 4.4 Q 57.8 5.4 58.7 5.4 L 58.7 5.4 L 58.7 5.4 Q 60.3 5.4 63.7 3.1 L 63.7 3.1 L 63.7 3.1 Q 69 -0.6 72.7 -5.8 L 72.7 -5.8 L 72.7 -5.8 Q 72.7 -6.7 72.7 -7.9 L 72.7 -7.9 L 72.7 -7.9 Q 72.7 -9.2 72.9 -10.4 L 72.9 -10.4 L 72.9 -10.4 Q 73 -11 73.6 -11.6 L 73.6 -11.6 L 73.6 -11.6 Q 74.2 -12.1 74.5 -12.1 L 74.5 -12.1 L 74.5 -12.1 Q 74.9 -12.1 75 -11.4 L 75 -11.4 L 75.1 -10.9 L 75.1 -10.9 Q 75.1 -10.6 75.1 -10.3 L 75.1 -10.3 L 75.1 -10.3 Q 75.1 -7.9 74.2 -6 L 74.2 -6 L 74.2 -6 Q 74.2 -5.9 74.2 -5.7 L 74.2 -5.7 L 74.2 -5.7 Q 74.2 -2.2 75.7 0.5 L 75.7 0.5 L 75.7 0.5 Q 77.2 3.3 79.2 3.3 L 79.2 3.3 L 79.2 3.3 Q 81 3.3 82.3 1.5 L 82.3 1.5 L 82.3 1.5 Q 84.5 -1.5 84.5 -5.8 L 84.5 -5.8 L 84.5 -5.8 Q 84.5 -9.7 82.8 -11.6 L 82.8 -11.6 L 82.8 -11.6 Q 81.8 -12.7 80.3 -12.7 L 80.3 -12.7 L 80.3 -12.7 Q 79.1 -12.7 78.3 -12.1 L 78.3 -12.1 L 78.3 -12.1 Q 78 -11.9 77.8 -12.1 L 77.8 -12.1 L 77.8 -12.1 Q 77.7 -12.3 77.8 -12.5 L 77.8 -12.5 L 77.8 -12.5 Q 79.5 -13.7 81 -13.7 L 81 -13.7 L 81 -13.7 Q 82.5 -13.7 83.4 -13 L 83.4 -13 L 83.4 -13 Q 85.8 -11.5 85.8 -6.9 L 85.8 -6.9 L 85.8 -6.9 Q 85.8 -5 85.3 -3 L 85.3 -3 L 85.3 -3 Q 84.4 0 82.6 2.3 L 82.6 2.3 L 82.6 2.3 Q 80.7 4.5 78.4 4.5 L 78.4 4.5 L 78.4 4.5 Q 78.4 4.5 78.3 4.5 L 78.3 4.5 L 78.3 4.5 Q 75.9 4.5 74.3 2.1 L 74.3 2.1 L 74.3 2.1 Q 72.6 -0.4 72.6 -3.4 L 72.6 -3.4 L 72.6 -3.4 Q 72.6 -3.8 72.7 -4.2 L 72.7 -4.2 L 72.7 -4.2 Q 71.1 -2.3 68.8 -0.1 L 68.8 -0.1 L 68.8 -0.1 Q 66.5 2.1 64.5 3.5 L 64.5 3.5 L 64.5 3.5 Q 61 6.1 58 6.1 Z M 94.9 -5.8 L 94.9 -5.8 L 94.9 -5.8 Q 96.6 -5.8 96.6 -4.2 L 96.6 -4.2 L 96.6 -4.2 Q 96.6 -3.3 96.1 -2.8 L 96.1 -2.8 L 96.1 -2.8 Q 95.3 -1.7 93.6 -0.8 L 93.6 -0.8 L 93.6 -0.8 Q 91.9 0.1 90.6 0.1 L 90.6 0.1 L 90.6 0.1 Q 90.2 0.2 90.2 -0.1 L 90.2 -0.1 L 90.2 -0.1 Q 90.2 -0.2 90.3 -0.3 L 90.3 -0.3 L 90.3 -0.3 Q 90.4 -0.3 90.4 -0.3 L 90.4 -0.3 L 90.4 -0.3 Q 91.1 -0.4 92.3 -1 L 92.3 -1 L 92.3 -1 Q 94.3 -2.1 95.3 -3.3 L 95.3 -3.3 L 95.3 -3.3 Q 95.7 -3.8 95.7 -4.3 L 95.7 -4.3 L 95.7 -4.3 Q 95.7 -4.8 95.2 -4.8 L 95.2 -4.8 L 95.2 -4.8 Q 94.8 -4.8 94.1 -4.5 L 94.1 -4.5 L 94.1 -4.5 Q 92.7 -3.8 91.1 -2.1 L 91.1 -2.1 L 91.1 -2.1 Q 89.4 -0.4 88.9 1.2 L 88.9 1.2 L 88.9 1.2 Q 88.8 1.7 88.8 2.1 L 88.8 2.1 L 88.8 2.1 Q 88.8 2.6 89.2 3.1 L 89.2 3.1 L 89.2 3.1 Q 89.6 3.5 90.4 3.5 L 90.4 3.5 L 90.4 3.5 Q 91.4 3.5 92.6 3 L 92.6 3 L 92.6 3 Q 96.1 1.6 98 -1.3 L 98 -1.3 L 98 -1.3 Q 98.1 -1.6 98.3 -1.4 L 98.3 -1.4 L 98.3 -1.4 Q 98.4 -1.3 98.4 -1.3 L 98.4 -1.3 L 98.4 -1.3 Q 98.4 -1.2 98.3 -1 L 98.3 -1 L 98.3 -1 Q 97.4 0.5 96 1.7 L 96 1.7 L 96 1.7 Q 93.2 4.1 90.6 4.1 L 90.6 4.1 L 90.6 4.1 Q 88.4 4.1 87.5 2.7 L 87.5 2.7 L 87.5 2.7 Q 87.1 2.2 87.1 1.5 L 87.1 1.5 L 87.1 1.5 Q 87.1 0.7 87.5 -0.3 L 87.5 -0.3 L 87.5 -0.3 Q 88.3 -2.1 90.9 -3.9 L 90.9 -3.9 L 90.9 -3.9 Q 93.4 -5.8 94.9 -5.8 Z M 106.3 -5.1 L 106.3 -5.1 L 106.3 -5.1 Q 106.9 -5.1 107.6 -4.6 L 107.6 -4.6 L 107.6 -4.6 Q 108.4 -4 108.5 -3.4 L 108.5 -3.4 L 108.5 -3.4 Q 108.5 -3.2 108.5 -3 L 108.5 -3 L 108.5 -3 Q 108.5 -1.6 107.2 0 L 107.2 0 L 107.2 0 Q 105.8 1.6 104.1 2.7 L 104.1 2.7 L 104.1 2.7 Q 101.5 4.5 98.9 4.5 L 98.9 4.5 L 98.9 4.5 Q 97.8 4.5 97.2 4.2 L 97.2 4.2 L 97.2 4.2 Q 96.7 4 98.4 4 L 98.4 4 L 98.4 4 Q 100.3 4 103.3 1.7 L 103.3 1.7 L 103.3 1.7 Q 106.2 -0.3 106.9 -3.2 L 106.9 -3.2 L 106.9 -3.2 Q 107 -3.6 106.8 -4.1 L 106.8 -4.1 L 106.8 -4.1 Q 106.7 -4.5 106.3 -4.5 L 106.3 -4.5 L 106.3 -4.5 Q 104.9 -4.5 102.6 -2.6 L 102.6 -2.6 L 102.6 -2.6 Q 101.7 -1.7 100.7 -0.4 L 100.7 -0.4 L 100.7 -0.4 Q 99.7 1 99.7 1.8 L 99.7 1.8 L 99.7 1.8 Q 99.7 2 99.7 2.1 L 99.7 2.1 L 99.7 2.1 Q 99.8 2.3 99.6 2.6 L 99.6 2.6 L 99.6 2.6 Q 99.2 3.4 98.5 2.5 L 98.5 2.5 L 98.5 2.5 Q 98.3 2 98.3 1.5 L 98.3 1.5 L 98.3 1.5 Q 98.3 0.1 98.7 -1.5 L 98.7 -1.5 L 98.7 -1.5 Q 98.6 -1.4 98.2 -0.7 L 98.2 -0.7 L 98.2 -0.7 Q 97.7 -0.1 97.2 0.5 L 97.2 0.5 L 97.2 0.5 Q 96.9 0.8 96.8 0.5 L 96.8 0.5 L 96.8 0.5 Q 96.7 0.5 96.7 0.3 L 96.7 0.3 L 96.7 0.3 Q 96.7 0.2 96.8 0.1 L 96.8 0.1 L 96.8 0.1 Q 99.3 -2.9 99.7 -3.8 L 99.7 -3.8 L 99.7 -3.8 Q 100.2 -5.4 101.4 -7.9 L 101.4 -7.9 L 101.4 -7.9 Q 102.5 -10.4 103.5 -11.9 L 103.5 -11.9 L 103.5 -11.9 Q 105.5 -15 107.6 -15 L 107.6 -15 L 107.6 -15 Q 107.9 -15 108.3 -14.9 L 108.3 -14.9 L 109 -14.7 L 109 -14.7 Q 109.9 -14.1 109.9 -13.3 L 109.9 -13.3 L 109.9 -13.3 Q 109.9 -12.5 109.4 -11.5 L 109.4 -11.5 L 109.4 -11.5 Q 108.6 -9.9 105.9 -7.4 L 105.9 -7.4 L 105.9 -7.4 Q 103.2 -4.9 100.7 -3.2 L 100.7 -3.2 L 100.7 -3.2 Q 100.1 -2.1 99.8 -0.3 L 99.8 -0.3 L 99.8 -0.3 Q 100.9 -2 102.8 -3.5 L 102.8 -3.5 L 102.8 -3.5 Q 104.6 -5.1 106.3 -5.1 Z M 105.3 -7.9 L 105.3 -7.9 L 105.3 -7.9 Q 109 -11.6 109 -13.4 L 109 -13.4 L 109 -13.4 Q 109 -14.2 108.4 -14.2 L 108.4 -14.2 L 108.4 -14.2 Q 108 -14.2 107.3 -13.6 L 107.3 -13.6 L 107.3 -13.6 Q 104.1 -11.2 101.1 -4.4 L 101.1 -4.4 L 101.1 -4.4 Q 103.2 -5.8 105.3 -7.9 Z M 110 3.6 L 110 3.6 L 110 3.6 Q 109.6 4 109.9 4.3 L 109.9 4.3 L 109.9 4.3 Q 110.1 4.6 110.4 4.6 L 110.4 4.6 L 110.4 4.6 Q 110.7 4.6 111 4.5 L 111 4.5 L 111 4.5 Q 112.3 4.1 113.6 2.9 L 113.6 2.9 L 113.6 2.9 Q 114.8 1.7 114.8 0.5 L 114.8 0.5 L 114.8 0.5 Q 114.8 -0.2 113.3 -1 L 113.3 -1 L 113.3 -1 Q 112.6 -1.4 112.5 -1.5 L 112.5 -1.5 L 112.5 -1.5 Q 111.7 -2 111.4 -2.6 L 111.4 -2.6 L 111.4 -2.6 Q 111 -1.8 110.1 -0.4 L 110.1 -0.4 L 110.1 -0.4 Q 109.8 -0.2 109.7 -0.3 L 109.7 -0.3 L 109.7 -0.3 Q 109.5 -0.5 109.6 -0.7 L 109.6 -0.7 L 109.6 -0.7 Q 110.9 -2.5 111.3 -3.6 L 111.3 -3.6 L 111.3 -3.6 Q 111.5 -5.3 113.8 -6.7 L 113.8 -6.7 L 113.8 -6.7 Q 116 -8.1 117.9 -8.1 L 117.9 -8.1 L 117.9 -8.1 Q 119.1 -8.1 119.6 -7.7 L 119.6 -7.7 L 119.6 -7.7 Q 120 -7.2 120 -6.8 L 120 -6.8 L 120 -6.8 Q 120 -6.4 119.8 -5.9 L 119.8 -5.9 L 119.8 -5.9 Q 119.6 -5.4 118.9 -4.9 L 118.9 -4.9 L 118.9 -4.9 Q 118.7 -4.8 118.5 -5 L 118.5 -5 L 118.5 -5 Q 118.5 -5.2 118.8 -5.5 L 118.8 -5.5 L 118.8 -5.5 Q 119.1 -5.8 119.2 -6.4 L 119.2 -6.4 L 119.2 -6.4 Q 119.3 -6.9 118.7 -7 L 118.7 -7 L 118.7 -7 Q 118.6 -7 118.5 -7 L 118.5 -7 L 118.5 -7 Q 117.3 -7 115.5 -6.1 L 115.5 -6.1 L 115.5 -6.1 Q 113.7 -5.2 112.7 -3.8 L 112.7 -3.8 L 112.7 -3.8 Q 112.3 -3.3 112.3 -2.8 L 112.3 -2.8 L 112.3 -2.8 Q 112.3 -2.2 113 -1.8 L 113 -1.8 L 113 -1.8 Q 113.3 -1.6 114.1 -1.2 L 114.1 -1.2 L 114.1 -1.2 Q 114.8 -0.8 115.1 -0.6 L 115.1 -0.6 L 115.1 -0.6 Q 115.4 -0.4 115.9 0 L 115.9 0 L 115.9 0 Q 116.3 0.4 116.3 0.7 L 116.3 0.7 L 116.3 0.7 Q 116.5 1.7 115.5 2.8 L 115.5 2.8 L 115.5 2.8 Q 114 4.4 111.1 5 L 111.1 5 L 111.1 5 Q 110.5 5.2 109.8 5.2 L 109.8 5.2 L 109.8 5.2 Q 109.2 5.2 108.9 4.7 L 108.9 4.7 L 108.9 4.7 Q 108.8 4.6 108.8 4.3 L 108.8 4.3 L 108.8 4.3 Q 108.8 4.1 109.3 3.5 L 109.3 3.5 L 109.3 3.5 Q 109.8 3 110.8 2.6 L 110.8 2.6 L 110.8 2.6 Q 110.9 2.5 111 2.6 L 111 2.6 L 111 2.6 Q 111 2.7 111 2.7 L 111 2.7 L 111 2.7 Q 111 2.8 110.7 3 L 110.7 3 L 110.7 3 Q 110.4 3.1 110 3.6 Z M 121.9 -5.3 L 121.9 -5.3 L 121.9 -5.3 Q 122.6 -5.3 122.8 -4.8 L 122.8 -4.8 L 122.8 -4.8 Q 122.9 -4.6 122.7 -4.3 L 122.7 -4.3 L 122.7 -4.3 Q 122.6 -4 122.5 -3.9 L 122.5 -3.9 L 122.5 -3.9 Q 122.5 -3.7 122.4 -3.6 L 122.4 -3.6 L 122.4 -3.6 Q 122.3 -3.3 122.1 -3 L 122.1 -3 L 122.1 -3 Q 120.3 0.5 120.3 1.4 L 120.3 1.4 L 120.3 1.4 Q 120.2 1.7 120.2 2.2 L 120.2 2.2 L 120.2 2.2 Q 120.2 2.6 120.5 2.9 L 120.5 2.9 L 120.5 2.9 Q 120.9 3.4 121.7 2.9 L 121.7 2.9 L 121.7 2.9 Q 122.5 2.5 124 1.2 L 124 1.2 L 124 1.2 Q 125.4 -0.1 126.3 -1.3 L 126.3 -1.3 L 126.3 -1.3 Q 126.4 -1.5 126.6 -1.4 L 126.6 -1.4 L 126.6 -1.4 Q 126.7 -1.3 126.7 -1.3 L 126.7 -1.3 L 126.7 -1.3 Q 126.7 -1.2 126.7 -1.1 L 126.7 -1.1 L 126.7 -1.1 Q 126.2 -0.3 125 1 L 125 1 L 125 1 Q 123 3.2 121.7 3.7 L 121.7 3.7 L 121.7 3.7 Q 120.9 4 120.4 4 L 120.4 4 L 120.4 4 Q 119.1 4 118.7 2.8 L 118.7 2.8 L 118.7 2.8 Q 118.7 2.6 118.7 2.3 L 118.7 2.3 L 118.7 2.3 Q 118.7 1.2 119.7 -1 L 119.7 -1 L 119.7 -1 Q 119.5 -0.7 118.5 0.5 L 118.5 0.5 L 118.5 0.5 Q 118.2 0.8 118 0.5 L 118 0.5 L 118 0.5 Q 118 0.5 118 0.3 L 118 0.3 L 118 0.3 Q 118 0.2 118.1 0.1 L 118.1 0.1 L 118.1 0.1 Q 119.6 -1.8 120.5 -3.1 L 120.5 -3.1 L 120.5 -3.1 Q 120.4 -3.3 120.6 -3.5 L 120.6 -3.5 L 120.6 -3.5 Q 121.2 -5.2 121.6 -5.3 L 121.6 -5.3 L 121.6 -5.3 Q 121.7 -5.3 121.9 -5.3 Z M 124.3 -9.5 L 124.3 -9.5 L 124.1 -8.5 L 124.1 -8.5 Q 124.1 -8.2 123.7 -7.6 L 123.7 -7.6 L 123.7 -7.6 Q 123.3 -7 123 -7 L 123 -7 L 123 -7 Q 121.7 -7 121.7 -7.6 L 121.7 -7.6 L 121.7 -7.6 Q 121.7 -7.7 123 -8.8 L 123 -8.8 L 123.6 -9.2 L 123.6 -9.2 Q 124.1 -9.6 124.2 -9.6 L 124.2 -9.6 L 124.2 -9.6 Q 124.3 -9.6 124.3 -9.5 Z M 130.5 -5.4 L 130.9 -5.4 L 130.9 -5.4 Q 133.2 -5.7 133.8 -5.7 L 133.8 -5.7 L 133.8 -5.7 Q 134.3 -5.7 134.3 -5.5 L 134.3 -5.5 L 134.3 -5.5 Q 134.3 -5.3 133.5 -5.1 L 133.5 -5.1 L 133.5 -5.1 Q 132.8 -4.9 130 -4.6 L 130 -4.6 L 130 -4.6 Q 129.8 -4.3 129.6 -3.9 L 129.6 -3.9 L 129.6 -3.9 Q 129.1 -3.2 129.1 -3 L 129.1 -3 L 129.1 -3 Q 127.4 0.5 127.3 1.4 L 127.3 1.4 L 127.3 1.4 Q 127.2 1.7 127.2 2.2 L 127.2 2.2 L 127.2 2.2 Q 127.2 2.6 127.5 2.9 L 127.5 2.9 L 127.5 2.9 Q 127.9 3.4 128.7 2.9 L 128.7 2.9 L 128.7 2.9 Q 129.5 2.5 131 1.2 L 131 1.2 L 131 1.2 Q 132.4 -0.1 133.3 -1.3 L 133.3 -1.3 L 133.3 -1.3 Q 133.4 -1.5 133.6 -1.4 L 133.6 -1.4 L 133.6 -1.4 Q 134.1 -1.2 132 1 L 132 1 L 132 1 Q 130 3.2 128.7 3.7 L 128.7 3.7 L 128.7 3.7 Q 127.9 4 127.4 4 L 127.4 4 L 127.4 4 Q 126.1 4 125.7 2.8 L 125.7 2.8 L 125.7 2.8 Q 125.7 2.6 125.7 2.3 L 125.7 2.3 L 125.7 2.3 Q 125.7 1.2 126.7 -1 L 126.7 -1 L 126.7 -1 Q 126.5 -0.7 125.5 0.5 L 125.5 0.5 L 125.5 0.5 Q 125.2 0.8 125 0.5 L 125 0.5 L 125 0.5 Q 125 0.5 125 0.3 L 125 0.3 L 125 0.3 Q 125 0.2 125.1 0.1 L 125.1 0.1 L 125.1 0.1 Q 126.6 -1.8 127.5 -3.1 L 127.5 -3.1 L 127.5 -3.1 Q 127.5 -3.1 128.2 -4.4 L 128.2 -4.4 L 128.2 -4.4 Q 127.9 -4.3 127.6 -4.3 L 127.6 -4.3 L 127.6 -4.3 Q 127.2 -4.3 127.1 -4.6 L 127.1 -4.6 L 127.1 -4.6 Q 126.9 -4.8 127 -5 L 127 -5 L 127 -5 Q 127.3 -5.5 128.7 -5.6 L 128.7 -5.6 L 128.7 -5.6 Q 128.7 -5.7 128.8 -5.7 L 128.8 -5.7 L 130.4 -8.5 L 130.4 -8.5 Q 130.5 -8.8 130.6 -9 L 130.6 -9 L 130.6 -9 Q 130.8 -9.3 130.9 -9.4 L 130.9 -9.4 L 130.9 -9.4 Q 130.9 -9.6 131 -9.7 L 131 -9.7 L 131 -9.7 Q 131.1 -9.9 131.2 -10 L 131.2 -10 L 131.2 -10 Q 131.3 -10 131.3 -10.1 L 131.3 -10.1 L 131.3 -10.1 Q 131.4 -10.3 132 -10.3 L 132 -10.3 L 132 -10.3 Q 132.7 -10.3 132.9 -9.9 L 132.9 -9.9 L 132.9 -9.9 Q 133 -9.8 133 -9.5 L 133 -9.5 L 133 -9.5 Q 133 -9.2 132.7 -8.9 L 132.7 -8.9 L 132.7 -8.9 Q 132.5 -8.5 132.3 -8.3 L 132.3 -8.3 L 132.3 -8.3 Q 132 -8.2 131.9 -8 L 131.9 -8 L 130.5 -5.4 Z M 140.1 -5.8 L 140.1 -5.8 L 140.1 -5.8 Q 141.7 -5.8 141.7 -4.2 L 141.7 -4.2 L 141.7 -4.2 Q 141.7 -3.3 141.3 -2.8 L 141.3 -2.8 L 141.3 -2.8 Q 140.5 -1.7 138.8 -0.8 L 138.8 -0.8 L 138.8 -0.8 Q 137 0.1 135.8 0.1 L 135.8 0.1 L 135.8 0.1 Q 135.4 0.2 135.3 -0.1 L 135.3 -0.1 L 135.3 -0.1 Q 135.3 -0.2 135.4 -0.3 L 135.4 -0.3 L 135.4 -0.3 Q 135.5 -0.3 135.6 -0.3 L 135.6 -0.3 L 135.6 -0.3 Q 136.3 -0.4 137.4 -1 L 137.4 -1 L 137.4 -1 Q 139.5 -2.1 140.5 -3.3 L 140.5 -3.3 L 140.5 -3.3 Q 140.9 -3.8 140.9 -4.3 L 140.9 -4.3 L 140.9 -4.3 Q 140.9 -4.8 140.4 -4.8 L 140.4 -4.8 L 140.4 -4.8 Q 140 -4.8 139.3 -4.5 L 139.3 -4.5 L 139.3 -4.5 Q 137.8 -3.8 136.2 -2.1 L 136.2 -2.1 L 136.2 -2.1 Q 134.6 -0.4 134.1 1.2 L 134.1 1.2 L 134.1 1.2 Q 134 1.7 134 2.1 L 134 2.1 L 134 2.1 Q 134 2.6 134.4 3.1 L 134.4 3.1 L 134.4 3.1 Q 134.8 3.5 135.6 3.5 L 135.6 3.5 L 135.6 3.5 Q 136.5 3.5 137.7 3 L 137.7 3 L 137.7 3 Q 141.2 1.6 143.1 -1.3 L 143.1 -1.3 L 143.1 -1.3 Q 143.3 -1.6 143.5 -1.4 L 143.5 -1.4 L 143.5 -1.4 Q 143.6 -1.3 143.6 -1.3 L 143.6 -1.3 L 143.6 -1.3 Q 143.6 -1.2 143.5 -1 L 143.5 -1 L 143.5 -1 Q 142.6 0.5 141.1 1.7 L 141.1 1.7 L 141.1 1.7 Q 138.4 4.1 135.8 4.1 L 135.8 4.1 L 135.8 4.1 Q 133.6 4.1 132.7 2.7 L 132.7 2.7 L 132.7 2.7 Q 132.3 2.2 132.3 1.5 L 132.3 1.5 L 132.3 1.5 Q 132.3 0.7 132.7 -0.3 L 132.7 -0.3 L 132.7 -0.3 Q 133.5 -2.1 136 -3.9 L 136 -3.9 L 136 -3.9 Q 138.6 -5.8 140.1 -5.8 Z">
        </path></g>
</svg>